<svg width="24" height="24" viewBox="0 0 24 24" fill="none" xmlns="http://www.w3.org/2000/svg">
<g clip-path="url(#clip0_272_169)">
<path fill-rule="evenodd" clip-rule="evenodd" d="M12 0C7.61196 0 4.05476 2.95088 4.05476 6.59096C4.05476 9.59622 6.4794 12.1317 9.79445 12.9247C7.17739 13.1892 4.93272 13.9571 3.24176 15.3395C1.08962 17.099 0 19.7183 0 23.1364C0 23.6135 0.466127 24 1.0411 24C1.61609 24 2.0822 23.6135 2.0822 23.1364C2.0822 20.0091 3.07472 17.9012 4.70333 16.5698C6.335 15.2358 8.77091 14.5455 11.9999 14.5455C15.2288 14.5455 17.6649 15.2358 19.2966 16.5698C20.9251 17.9012 21.9178 20.0091 21.9178 23.1364C21.9178 23.6135 22.3838 24 22.9589 24C23.5338 24.0002 24 23.6135 24 23.1365C24 19.7183 22.9102 17.099 20.7581 15.3395C19.0672 13.9571 16.8225 13.1892 14.2055 12.9247C17.5204 12.1317 19.9452 9.59624 19.9452 6.59096C19.9452 2.95088 16.388 0 12 0ZM6.13695 6.59096C6.13695 3.90483 8.76192 1.72729 12 1.72729C15.238 1.72729 17.863 3.90483 17.863 6.59096C17.863 9.27709 15.238 11.4546 12 11.4546C8.76192 11.4546 6.13695 9.27709 6.13695 6.59096Z" fill="black"/>
</g>
<defs>
<clipPath id="clip0_272_169">
<rect width="24" height="24" fill="white"/>
</clipPath>
</defs>
</svg>
