<svg width="26" height="26" viewBox="0 0 26 26" fill="none" xmlns="http://www.w3.org/2000/svg">
<path d="M14.7712 2.04385C14.8679 2.04385 14.9235 2.04791 14.9235 2.04791H17.0453L17.0344 4.48541H14.9268C13.7669 4.48541 13.7937 5.47582 13.7937 5.47582V9.34007H17.8977L17.3249 11.7743H13.7803V23.9561H11.3453L11.3436 11.7743H8.10867L8.10217 9.34007H11.3449V5.5522C11.3452 2.24939 14.0883 2.04385 14.7712 2.04385ZM14.7712 0.418823C14.187 0.418823 13.0454 0.515536 11.9639 1.16716C10.9402 1.78304 9.72021 3.04442 9.72021 5.55182V7.71467H8.10253C7.67068 7.71467 7.25671 7.88692 6.95121 8.19244C6.80027 8.34399 6.68073 8.52385 6.59945 8.72169C6.51817 8.91954 6.47674 9.13149 6.47755 9.34538L6.48405 11.7796C6.4873 12.6746 7.21408 13.3989 8.10905 13.3989H9.71902L9.72064 23.9558C9.72064 24.8532 10.4483 25.5808 11.3456 25.5808H13.7807C14.6781 25.5808 15.4057 24.8532 15.4057 23.9558V13.3989H17.3253C18.0464 13.3989 18.6813 12.9236 18.8844 12.2318L19.4572 9.79754C19.6015 9.30641 19.5056 8.77544 19.1985 8.36632C19.0473 8.16401 18.8511 7.99976 18.6253 7.88664C18.3996 7.77352 18.1505 7.71464 17.898 7.71469H15.4191V6.11122L17.0347 6.11041C17.9289 6.11041 18.6557 5.38769 18.6597 4.49272L18.6707 2.13769C18.6723 2.10779 18.6732 2.07786 18.6732 2.04791C18.6732 1.1505 17.9472 0.422911 17.0498 0.422911H14.9694C14.9227 0.420474 14.8552 0.418849 14.7712 0.418823Z" fill="black"/>
</svg>
