<svg width="24" height="24" viewBox="0 0 24 24" fill="none" xmlns="http://www.w3.org/2000/svg">
<g clip-path="url(#clip0_211_202)">
<path d="M17.613 15.5161C19.0654 13.5341 19.716 11.0768 19.4345 8.63581C19.1529 6.1948 17.9601 3.9501 16.0947 2.35078C14.2292 0.751471 11.8286 -0.0845049 9.37326 0.0101048C6.91789 0.104714 4.58878 1.12293 2.85191 2.86105C1.11503 4.59917 0.0984798 6.929 0.00562703 9.38444C-0.0872257 11.8399 0.750468 14.2398 2.35112 16.1042C3.95176 17.9685 6.19732 19.1597 8.63853 19.4395C11.0797 19.7192 13.5366 19.0669 15.5175 17.6131H15.516C15.561 17.6731 15.609 17.7301 15.663 17.7856L21.438 23.5606C21.7193 23.842 22.1008 24.0002 22.4987 24.0004C22.8966 24.0005 23.2783 23.8426 23.5598 23.5613C23.8412 23.2801 23.9994 22.8985 23.9996 22.5006C23.9997 22.1027 23.8418 21.721 23.5605 21.4396L17.7855 15.6646C17.7319 15.6103 17.6742 15.5617 17.613 15.5161ZM18 9.75009C18 10.8335 17.7866 11.9063 17.372 12.9072C16.9574 13.9082 16.3497 14.8176 15.5836 15.5837C14.8176 16.3498 13.9081 16.9575 12.9071 17.3721C11.9062 17.7867 10.8334 18.0001 9.75 18.0001C8.6666 18.0001 7.5938 17.7867 6.59287 17.3721C5.59193 16.9575 4.68246 16.3498 3.91637 15.5837C3.15029 14.8176 2.5426 13.9082 2.128 12.9072C1.7134 11.9063 1.5 10.8335 1.5 9.75009C1.5 7.56205 2.3692 5.46363 3.91637 3.91646C5.46355 2.36928 7.56197 1.50009 9.75 1.50009C11.938 1.50009 14.0365 2.36928 15.5836 3.91646C17.1308 5.46363 18 7.56205 18 9.75009Z" fill="black"/>
</g>
<defs>
<clipPath id="clip0_211_202">
<rect width="24" height="24" fill="white"/>
</clipPath>
</defs>
</svg>
